<svg height="512pt" viewBox="0 0 512 512.00274" width="512pt" xmlns="http://www.w3.org/2000/svg"><path d="m407.640625 357.371094c.230469.332031.488281.644531.765625.9375 5.457031 7.339844 14.078125 11.648437 23.226562 11.601562 9.148438-.046875 17.726563-4.445312 23.101563-11.84375 60.773437-82.890625 73.304687-156.175781 36.242187-211.910156-16.773437-25.363281-42.527343-39.316406-67.429687-52.804688l-8.726563-4.761718c-21.84375-11.546875-36.617187-33.09375-39.519531-57.632813l-.023437-.316406c-1.875-18.355469-18.007813-31.890625-36.410156-30.5507812-18.183594 1.7695312-31.960938 17.2148442-31.644532 35.4843752v295.894531c-13.714844-4.785156-28.140625-7.21875-42.667968-7.199219-61.167969 0-110.933594 42.109375-110.933594 93.867188 0 51.757812 49.765625 93.867187 110.933594 93.867187 57.207031 0 104.652343-36.25 110.359374-84.308594.386719-3.171874.578126-6.363281.574219-9.558593v-255.300781c-.0625-3.09375 1.605469-5.96875 4.320313-7.449219 3.203125-1.691407 7.082031-1.4375 10.039062.648437l5.496094 3.292969c14.769531 8.773437 28.71875 17.066406 37.433594 31.441406 25.894531 43.007813.664062 96.535157-25.050782 133.851563-6.800781 9.84375-6.835937 22.863281-.085937 32.75zm14.128906-23.050782c40.976563-59.46875 49.832031-112.144531 25.613281-152.375-11.015624-15.925781-25.929687-28.765624-43.320312-37.292968l-5.753906-3.441406c-8.140625-5.085938-18.394532-5.367188-26.804688-.742188-8.140625 4.484375-13.167968 13.074219-13.082031 22.367188v255.300781c.003906 2.515625-.148437 5.027343-.453125 7.523437-4.691406 39.496094-44.851562 69.277344-93.414062 69.277344-51.757813 0-93.867188-34.453125-93.867188-76.800781 0-42.351563 42.109375-76.800781 93.867188-76.800781 16.421874-.066407 32.652343 3.546874 47.492187 10.582031 2.644531 1.273437 5.757813 1.101562 8.242187-.457031 2.488282-1.5625 3.996094-4.289063 4-7.222657v-308.660156c-.226562-9.289063 6.585938-17.253906 15.800782-18.46875 4.949218-.332031 9.800781 1.476563 13.324218 4.96875 2.726563 2.726563 4.441407 6.300781 4.863282 10.132813 3.210937 30.355468 21.335937 57.113281 48.335937 71.351562l8.800781 4.789062c23.0625 12.5 46.90625 25.417969 61.34375 47.242188 33.214844 49.960938 21.179688 114.683594-35.800781 192.410156-2.144531 3.195313-5.808593 5.035156-9.65625 4.839844-3.824219-.042969-7.382812-1.96875-9.511719-5.148438-.171874-.242187-.347656-.484374-.542968-.710937-2.300782-3.964844-2.09375-8.902344.523437-12.664063zm0 0"/><path d="m273.066406 25.601562h-256c-9.417968.011719-17.0546872 7.648438-17.066406 17.066407v42.667969c.0117188 9.421874 7.648438 17.054687 17.066406 17.066406h256c9.421875-.011719 17.058594-7.644532 17.066406-17.066406v-42.667969c-.007812-9.417969-7.644531-17.054688-17.066406-17.066407zm-256 59.734376v-42.667969h256l.015625 42.667969zm0 0"/><path d="m0 187.734375c.0117188 9.421875 7.648438 17.058594 17.066406 17.070313h256c9.421875-.011719 17.058594-7.648438 17.066406-17.070313v-42.664063c-.007812-9.421874-7.644531-17.058593-17.066406-17.066406h-256c-9.417968.007813-17.0546872 7.644532-17.066406 17.066406zm17.066406-42.664063h256l.015625 42.664063h-256.015625zm0 0"/><path d="m0 290.136719c.0117188 9.421875 7.648438 17.054687 17.066406 17.066406h256c9.421875-.011719 17.058594-7.644531 17.066406-17.066406v-42.667969c-.007812-9.421875-7.644531-17.054688-17.066406-17.066406h-256c-9.417968.011718-17.0546872 7.644531-17.066406 17.066406zm17.066406-42.667969h256l.015625 42.667969h-256.015625zm0 0"/></svg>